<?xml version="1.0" encoding="UTF-8" standalone="no"?>
<!-- Created with Inkscape (http://www.inkscape.org/) -->

<svg
   width="164"
   height="164"
   viewBox="0 0 39.238881 39.238881"
   version="1.1"
   id="svg5"
   xmlns="http://www.w3.org/2000/svg"
   xmlns:svg="http://www.w3.org/2000/svg">
  <defs
     id="defs2" />
  <g
     id="layer1">
    <path
       id="rect234"
       style="color:#000000;fill:#282837;fill-opacity:0.662745;stroke:none;stroke-width:0.999996;stroke-linejoin:bevel;stroke-opacity:0.662745;-inkscape-stroke:none;paint-order:markers fill stroke"
       d="M 28.055115,6.5824458 C 24.858365,4.5136941 20.353035,5.8230581 17.964786,9.5135145 L 9.7228045,22.249482 c -2.3882516,3.690459 -1.7373591,8.337185 1.4593905,10.405937 3.196752,2.068752 7.703903,0.760014 10.092155,-2.930445 L 29.516331,16.989006 C 31.904581,13.29855 31.251867,8.6511986 28.055115,6.5824458 Z m -0.287148,0.4437169 c 2.990563,1.9353192 3.598097,6.2616083 1.363887,9.7140323 L 25.155199,22.885143 14.371037,15.906258 18.347692,9.7613096 C 20.581901,6.3088854 24.777405,5.090844 27.767967,7.0261627 Z m -1.746061,0.3645869 a 0.47852251,0.47852251 0 0 0 -0.09289,-0.05343 c 0,0 -0.749799,-0.318648 -1.834417,-0.2497729 -1.084618,0.068875 -2.546132,0.5195191 -4.035743,1.9364784 -0.315576,0.3001835 -0.7089,0.8222939 -1.186123,1.4845133 -0.47722,0.662221 -1.014793,1.449875 -1.521313,2.207178 -1.013033,1.514613 -1.901001,2.908286 -1.901001,2.908286 a 0.47852251,0.47852251 0 0 0 0.146925,0.660613 0.47852251,0.47852251 0 0 0 0.660614,-0.146927 c 0,0 0.883886,-1.386997 1.889576,-2.890631 0.502841,-0.75182 1.035491,-1.533377 1.501717,-2.180338 0.466226,-0.646962 0.888204,-1.175017 1.069776,-1.3477331 1.339856,-1.2745102 2.55235,-1.6205393 3.434483,-1.6765555 0.882132,-0.056017 1.39318,0.1729639 1.39318,0.1729639 A 0.47852251,0.47852251 0 0 0 26.175322,7.9665024 0.47852251,0.47852251 0 0 0 26.021906,7.3907496 Z M 23.951724,23.154447 a 0.47852251,0.47852251 0 0 1 0.136586,0.662828 c 0,0 -0.935057,1.419999 -1.995974,2.958705 -0.530467,0.769348 -1.091807,1.56866 -1.586721,2.239439 -0.49491,0.670781 -0.899725,1.195188 -1.21271,1.492911 -1.489608,1.41696 -2.950573,1.870188 -4.03519,1.939065 -1.084617,0.06887 -1.833401,-0.251343 -1.833401,-0.251343 a 0.47852251,0.47852251 0 0 1 -0.24889,-0.628631 0.47852251,0.47852251 0 0 1 0.6302,-0.247874 c 0,1e-6 0.509227,0.228355 1.391358,0.17234 0.882131,-0.05601 2.094627,-0.402047 3.434482,-1.676556 0.184156,-0.17518 0.619339,-0.711036 1.10398,-1.367901 0.48464,-0.656863 1.042119,-1.451349 1.569156,-2.215737 1.054074,-1.528777 1.984295,-2.940659 1.984295,-2.940659 a 0.47852251,0.47852251 0 0 1 0.662829,-0.136587 z" />
  </g>
</svg>
